<?xml version="1.0" encoding="utf-8"?>
<!-- Generator: Adobe Illustrator 28.0.0, SVG Export Plug-In . SVG Version: 6.00 Build 0)  -->
<svg version="1.1" id="Capa_1" xmlns="http://www.w3.org/2000/svg" xmlns:xlink="http://www.w3.org/1999/xlink" x="0px" y="0px"
	 viewBox="0 0 841.89 1119.69" style="enable-background:new 0 0 841.89 1119.69;" xml:space="preserve">
<style type="text/css">
	.st0{fill:#7F7F7F;}
	.st1{fill:#FEFEFE;}
	.st2{clip-path:url(#SVGID_00000155136165576767232230000001226919554824914874_);}
	.st3{fill:none;stroke:#7F7F7F;stroke-width:0.5;stroke-miterlimit:10;}
	.st4{fill:#00A03E;}
	.st5{fill:none;stroke:#009FE3;stroke-width:0.5;stroke-miterlimit:10;}
	.st6{clip-path:url(#SVGID_00000157987666716573439230000002091407773848445115_);}
	.st7{fill:#575756;}
	.st8{clip-path:url(#SVGID_00000018228551789644551320000002015062524846348432_);}
	.st9{clip-path:url(#SVGID_00000038383164767563646560000003822707959845712531_);}
</style>
<g id="iBbJNF_00000154416589376910295880000003030395015453423516_">
	<g>
		<path class="st4" d="M461.76,550.53c0,7.56-6.11,13.69-13.65,13.69c-7.6,0-13.74-6.13-13.73-13.7
			c0.01-7.55,6.14-13.67,13.68-13.67C455.64,536.85,461.75,542.95,461.76,550.53z M448.12,538.14c-6.82-0.02-12.44,5.51-12.46,12.28
			c-0.02,6.86,5.5,12.5,12.26,12.53c6.94,0.03,12.53-5.49,12.55-12.39C460.49,543.72,454.96,538.16,448.12,538.14z"/>
		<path class="st4" d="M452.85,545.19c-2.02,0.54-3.47,1.69-4.07,3.78c0.02-1.33,0.05-2.65,0.77-3.82c0.64-1.05,1.63-1.52,2.83-1.57
			c0.54-0.02,1.09,0.01,1.63,0.02c0.71,0.01,1.38-0.11,1.95-0.6c0.02,0.06,0.05,0.1,0.03,0.12c-0.54,0.98-0.79,2.07-1.1,3.14
			c-0.5,1.74-1.55,2.93-3.3,3.46c-0.08,0.02-0.15,0.05-0.22,0.08c-1.41,0.49-1.44,0.48-1.81,1.94c-0.58,2.31-1.08,4.64-1.47,7
			c-0.09,0.52-0.21,1.04-0.46,1.51c-0.13,0.25-0.3,0.47-0.51,0.66c-0.65,0.59-1.02,0.49-1.25-0.36c-0.4-1.51-0.65-3.05-0.96-4.58
			c-0.65-3.11-1.51-6.15-3.2-8.89c-0.57-0.92-1.21-1.78-1.94-2.57c-0.13-0.13-0.25-0.27-0.35-0.44c0.83,0.23,1.57,0.64,2.25,1.17
			c1.44,1.13,2.39,2.61,3.16,4.23c0.87,1.81,1.35,3.76,1.92,5.67c0.1,0.33,0.2,0.65,0.33,1.09c0.37-1.4,0.76-2.68,1.25-3.92
			c0.48-1.2,0.96-2.41,1.49-3.59c0.59-1.33,1.53-2.38,2.73-3.2c0.12-0.08,0.23-0.17,0.35-0.25c0.04-0.02,0.09-0.03,0.13-0.05
			C452.97,545.12,452.91,545.17,452.85,545.19z"/>
		<path class="st1" d="M452.85,545.19c0.06-0.02,0.12-0.08,0.18,0.01c-0.04,0.02-0.09,0.03-0.13,0.05
			C452.88,545.23,452.86,545.21,452.85,545.19z"/>
	</g>
</g>
</svg>
